<?xml version="1.0" encoding="UTF-8"?>
<svg xmlns="http://www.w3.org/2000/svg" xmlns:xlink="http://www.w3.org/1999/xlink" width="35px" height="48px" viewBox="0 0 25 28" version="1.1">
<defs>
<clipPath id="clip1">
  <path d="M 5 12.347656 L 20 12.347656 L 20 15.652344 L 5 15.652344 Z M 5 12.347656 "/>
</clipPath>
</defs>
<g id="surface1">
<path style=" stroke:none;fill-rule:nonzero;fill:rgb(100%,100%,100%);fill-opacity:1;" d="M 24.058594 14 L 24.570312 13.113281 C 25.453125 11.589844 24.929688 9.640625 23.398438 8.757812 L 22.507812 8.246094 L 22.507812 7.222656 C 22.507812 5.464844 21.074219 4.035156 19.304688 4.035156 L 18.277344 4.035156 L 17.765625 3.148438 C 16.878906 1.625 14.921875 1.101562 13.390625 1.984375 L 12.5 2.496094 L 11.609375 1.984375 C 10.078125 1.101562 8.121094 1.625 7.234375 3.148438 L 6.722656 4.035156 L 5.695312 4.035156 C 3.925781 4.035156 2.492188 5.464844 2.492188 7.222656 L 2.492188 8.246094 L 1.601562 8.757812 C 0.0703125 9.640625 -0.453125 11.589844 0.429688 13.113281 L 0.941406 14 L 0.429688 14.886719 C -0.453125 16.410156 0.0703125 18.359375 1.601562 19.242188 L 2.492188 19.753906 L 2.492188 20.773438 C 2.492188 22.535156 3.925781 23.964844 5.695312 23.964844 L 6.722656 23.964844 L 7.234375 24.847656 C 8.121094 26.375 10.078125 26.898438 11.609375 26.015625 L 12.5 25.503906 L 13.390625 26.015625 C 14.921875 26.898438 16.878906 26.375 17.765625 24.851562 L 18.277344 23.964844 L 19.304688 23.964844 C 21.074219 23.964844 22.507812 22.535156 22.507812 20.777344 L 22.507812 19.753906 L 23.398438 19.242188 C 24.929688 18.359375 25.453125 16.410156 24.570312 14.886719 Z M 23.257812 9 C 23.933594 9.390625 24.417969 10.015625 24.621094 10.765625 C 24.820312 11.515625 24.71875 12.300781 24.328125 12.972656 L 23.894531 13.71875 L 22.507812 11.328125 L 22.507812 8.570312 Z M 19.621094 21.089844 L 15.105469 23.683594 L 9.894531 23.683594 L 5.378906 21.089844 L 2.773438 16.59375 L 2.773438 11.40625 L 5.378906 6.910156 L 9.894531 4.316406 L 15.105469 4.316406 L 19.621094 6.910156 L 22.226562 11.40625 L 22.226562 16.59375 Z M 22.226562 17.152344 L 22.226562 19.589844 L 20.105469 20.8125 Z M 19.339844 21.574219 L 18.117188 23.683594 L 15.667969 23.683594 Z M 14.621094 23.964844 L 12.5 25.183594 L 10.378906 23.964844 Z M 9.332031 23.683594 L 6.882812 23.683594 L 5.660156 21.574219 Z M 4.894531 20.8125 L 2.773438 19.589844 L 2.773438 17.152344 Z M 2.492188 16.113281 L 1.265625 14 L 2.492188 11.886719 Z M 2.773438 10.847656 L 2.773438 8.410156 L 4.894531 7.1875 Z M 5.660156 6.425781 L 6.882812 4.316406 L 9.332031 4.316406 Z M 10.378906 4.035156 L 12.5 2.816406 L 14.621094 4.035156 Z M 15.667969 4.316406 L 18.117188 4.316406 L 19.339844 6.425781 Z M 20.105469 7.1875 L 22.226562 8.410156 L 22.226562 10.847656 Z M 22.507812 11.886719 L 23.734375 14 L 22.507812 16.113281 Z M 19.304688 4.316406 C 20.085938 4.316406 20.820312 4.617188 21.371094 5.167969 C 21.925781 5.714844 22.226562 6.449219 22.226562 7.226562 L 22.226562 8.085938 L 19.828125 6.707031 L 18.441406 4.316406 Z M 13.53125 2.226562 C 14.207031 1.835938 14.992188 1.734375 15.746094 1.933594 C 16.5 2.136719 17.132812 2.617188 17.523438 3.289062 L 17.953125 4.035156 L 15.179688 4.035156 L 12.78125 2.65625 Z M 7.476562 3.289062 C 7.867188 2.617188 8.5 2.136719 9.253906 1.933594 C 10.007812 1.734375 10.792969 1.835938 11.46875 2.226562 L 12.21875 2.65625 L 9.816406 4.035156 L 7.046875 4.035156 Z M 2.773438 7.222656 C 2.773438 6.445312 3.074219 5.714844 3.628906 5.167969 C 4.179688 4.617188 4.914062 4.316406 5.695312 4.316406 L 6.558594 4.316406 L 5.171875 6.707031 L 2.773438 8.085938 Z M 0.671875 12.976562 C 0.28125 12.300781 0.179688 11.515625 0.378906 10.765625 C 0.582031 10.015625 1.066406 9.390625 1.742188 9 L 2.492188 8.570312 L 2.492188 11.332031 L 1.105469 13.722656 Z M 1.742188 19 C 1.066406 18.609375 0.582031 17.984375 0.378906 17.234375 C 0.179688 16.484375 0.28125 15.699219 0.671875 15.027344 L 1.105469 14.277344 L 2.492188 16.671875 L 2.492188 19.429688 Z M 5.695312 23.683594 C 4.914062 23.683594 4.179688 23.382812 3.628906 22.832031 C 3.074219 22.28125 2.773438 21.550781 2.773438 20.773438 L 2.773438 19.914062 L 5.171875 21.292969 L 6.558594 23.683594 Z M 11.46875 25.773438 C 10.792969 26.164062 10.007812 26.265625 9.253906 26.066406 C 8.5 25.863281 7.867188 25.382812 7.476562 24.710938 L 7.046875 23.964844 L 9.820312 23.964844 L 12.21875 25.34375 Z M 17.523438 24.710938 C 17.132812 25.382812 16.5 25.863281 15.746094 26.066406 C 14.992188 26.265625 14.207031 26.164062 13.53125 25.773438 L 12.78125 25.34375 L 15.183594 23.964844 L 17.953125 23.964844 Z M 22.226562 20.773438 C 22.226562 21.550781 21.925781 22.28125 21.371094 22.832031 C 20.820312 23.382812 20.085938 23.683594 19.304688 23.683594 L 18.441406 23.683594 L 19.828125 21.292969 L 22.226562 19.914062 Z M 24.621094 17.234375 C 24.417969 17.984375 23.933594 18.609375 23.257812 19 L 22.507812 19.429688 L 22.507812 16.667969 L 23.894531 14.277344 L 24.328125 15.023438 C 24.71875 15.699219 24.820312 16.480469 24.621094 17.234375 Z M 24.621094 17.234375 "/>
<g clip-path="url(#clip1)" clip-rule="nonzero">
<path style=" stroke:none;fill-rule:nonzero;fill:rgb(100%,100%,100%);fill-opacity:1;" d="M 5.304688 14.242188 L 5.304688 15.628906 L 5 15.628906 L 5 12.347656 L 5.417969 12.347656 L 6.257812 13.734375 L 7.1875 15.273438 C 7.179688 14.9375 7.175781 14.425781 7.175781 13.738281 L 7.175781 12.347656 L 7.480469 12.347656 L 7.480469 15.628906 L 7.0625 15.628906 L 6.226562 14.25 L 5.292969 12.703125 C 5.300781 13.054688 5.304688 13.566406 5.304688 14.242188 Z M 8.960938 15.378906 C 9.15625 15.378906 9.3125 15.328125 9.429688 15.21875 C 9.550781 15.113281 9.609375 14.976562 9.609375 14.8125 L 9.609375 14.457031 L 9.125 14.457031 C 8.890625 14.457031 8.71875 14.5 8.605469 14.589844 C 8.492188 14.679688 8.433594 14.789062 8.433594 14.921875 C 8.433594 15.058594 8.480469 15.167969 8.566406 15.253906 C 8.65625 15.339844 8.789062 15.378906 8.960938 15.378906 Z M 9.609375 15.628906 L 9.609375 15.339844 C 9.46875 15.550781 9.234375 15.652344 8.894531 15.652344 C 8.664062 15.652344 8.480469 15.585938 8.332031 15.449219 C 8.1875 15.316406 8.117188 15.144531 8.117188 14.933594 C 8.117188 14.695312 8.207031 14.511719 8.390625 14.378906 C 8.578125 14.25 8.820312 14.183594 9.125 14.183594 L 9.609375 14.183594 L 9.609375 14.070312 C 9.609375 13.851562 9.558594 13.683594 9.464844 13.570312 C 9.371094 13.460938 9.214844 13.402344 8.992188 13.402344 C 8.734375 13.402344 8.503906 13.472656 8.296875 13.613281 L 8.296875 13.292969 C 8.484375 13.179688 8.71875 13.121094 8.996094 13.121094 C 9.601562 13.121094 9.90625 13.4375 9.90625 14.070312 L 9.90625 15.628906 Z M 12.53125 13.160156 L 11.652344 15.628906 L 11.25 15.628906 L 10.394531 13.160156 L 10.707031 13.160156 L 11.054688 14.195312 L 11.453125 15.390625 C 11.484375 15.269531 11.621094 14.871094 11.855469 14.195312 L 12.21875 13.160156 Z M 14.824219 15.207031 L 14.824219 15.507812 C 14.628906 15.605469 14.402344 15.652344 14.140625 15.652344 C 13.773438 15.652344 13.472656 15.539062 13.242188 15.308594 C 13.011719 15.082031 12.898438 14.78125 12.898438 14.40625 C 12.898438 14.011719 13 13.699219 13.203125 13.472656 C 13.402344 13.246094 13.664062 13.132812 13.988281 13.132812 C 14.292969 13.132812 14.535156 13.230469 14.710938 13.429688 C 14.890625 13.625 14.980469 13.90625 14.980469 14.265625 C 14.980469 14.375 14.976562 14.464844 14.960938 14.527344 L 13.210938 14.527344 C 13.234375 14.800781 13.328125 15.007812 13.496094 15.152344 C 13.660156 15.296875 13.882812 15.371094 14.15625 15.371094 C 14.433594 15.371094 14.660156 15.316406 14.824219 15.207031 Z M 13.980469 13.410156 C 13.769531 13.410156 13.597656 13.480469 13.457031 13.628906 C 13.316406 13.773438 13.234375 13.984375 13.210938 14.253906 L 14.671875 14.253906 L 14.671875 14.144531 C 14.671875 13.917969 14.609375 13.742188 14.484375 13.609375 C 14.359375 13.476562 14.191406 13.410156 13.980469 13.410156 Z M 17.363281 15.207031 L 17.363281 15.507812 C 17.167969 15.605469 16.941406 15.652344 16.679688 15.652344 C 16.308594 15.652344 16.011719 15.539062 15.78125 15.308594 C 15.550781 15.082031 15.4375 14.78125 15.4375 14.40625 C 15.4375 14.011719 15.539062 13.699219 15.738281 13.472656 C 15.941406 13.246094 16.203125 13.132812 16.527344 13.132812 C 16.832031 13.132812 17.070312 13.230469 17.25 13.429688 C 17.429688 13.625 17.519531 13.90625 17.519531 14.265625 C 17.519531 14.375 17.511719 14.464844 17.5 14.527344 L 15.75 14.527344 C 15.773438 14.800781 15.867188 15.007812 16.03125 15.152344 C 16.199219 15.296875 16.417969 15.371094 16.695312 15.371094 C 16.972656 15.371094 17.195312 15.316406 17.363281 15.207031 Z M 16.515625 13.410156 C 16.308594 13.410156 16.132812 13.480469 15.992188 13.628906 C 15.855469 13.773438 15.773438 13.984375 15.75 14.253906 L 17.210938 14.253906 L 17.210938 14.144531 C 17.210938 13.917969 17.148438 13.742188 17.023438 13.609375 C 16.898438 13.476562 16.730469 13.410156 16.515625 13.410156 Z M 20 13.90625 L 20 15.628906 L 19.703125 15.628906 L 19.703125 13.996094 C 19.703125 13.804688 19.652344 13.660156 19.554688 13.558594 C 19.457031 13.457031 19.328125 13.410156 19.167969 13.410156 C 18.964844 13.410156 18.792969 13.484375 18.644531 13.640625 C 18.5 13.792969 18.425781 14.003906 18.425781 14.265625 L 18.425781 15.628906 L 18.125 15.628906 L 18.125 13.160156 L 18.425781 13.160156 L 18.425781 13.582031 C 18.578125 13.273438 18.839844 13.121094 19.210938 13.121094 C 19.449219 13.121094 19.640625 13.195312 19.785156 13.339844 C 19.929688 13.484375 20 13.675781 20 13.90625 Z M 20 13.90625 "/>
</g>
</g>
</svg>
