<?xml version="1.0" encoding="UTF-8"?>
<svg xmlns="http://www.w3.org/2000/svg" xmlns:xlink="http://www.w3.org/1999/xlink" width="75px" height="103px" viewBox="0 0 75 102" version="1.1">
<defs>
<clipPath id="clip1">
  <path d="M 15 46.085938 L 60 46.085938 L 60 55.914062 L 15 55.914062 Z M 15 46.085938 "/>
</clipPath>
</defs>
<g id="surface1">
<path style=" stroke:none;fill-rule:nonzero;fill:rgb(100%,100%,100%);fill-opacity:1;" d="M 72.175781 51 L 73.710938 48.363281 C 76.359375 43.828125 74.789062 38.03125 70.195312 35.40625 L 67.523438 33.882812 L 67.523438 30.835938 C 67.523438 25.609375 63.222656 21.355469 57.914062 21.355469 L 54.832031 21.355469 L 53.296875 18.714844 C 50.636719 14.183594 44.765625 12.628906 40.171875 15.253906 L 37.5 16.777344 L 34.828125 15.253906 C 30.234375 12.628906 24.363281 14.183594 21.703125 18.714844 L 20.167969 21.355469 L 17.085938 21.355469 C 11.777344 21.355469 7.476562 25.609375 7.476562 30.835938 L 7.476562 33.882812 L 4.804688 35.40625 C 0.210938 38.03125 -1.359375 43.828125 1.289062 48.363281 L 2.824219 51 L 1.289062 53.636719 C -1.359375 58.171875 0.210938 63.96875 4.804688 66.59375 L 7.476562 68.117188 L 7.476562 71.152344 C 7.476562 76.390625 11.777344 80.644531 17.085938 80.644531 L 20.167969 80.644531 L 21.703125 83.273438 C 24.363281 87.816406 30.234375 89.371094 34.828125 86.746094 L 37.5 85.222656 L 40.171875 86.746094 C 44.765625 89.371094 50.636719 87.816406 53.296875 83.285156 L 54.832031 80.644531 L 57.914062 80.644531 C 63.222656 80.644531 67.523438 76.390625 67.523438 71.164062 L 67.523438 68.117188 L 70.195312 66.59375 C 74.789062 63.96875 76.359375 58.171875 73.710938 53.636719 Z M 69.773438 36.125 C 71.800781 37.289062 73.253906 39.148438 73.863281 41.378906 C 74.460938 43.609375 74.15625 45.945312 72.984375 47.945312 L 71.683594 50.164062 L 67.523438 43.050781 L 67.523438 34.847656 Z M 58.863281 72.09375 L 45.316406 79.808594 L 29.683594 79.808594 L 16.136719 72.09375 L 8.320312 58.714844 L 8.320312 43.285156 L 16.136719 29.90625 L 29.683594 22.191406 L 45.316406 22.191406 L 58.863281 29.90625 L 66.679688 43.285156 L 66.679688 58.714844 Z M 66.679688 60.378906 L 66.679688 67.628906 L 60.316406 71.265625 Z M 58.019531 73.535156 L 54.351562 79.808594 L 47.003906 79.808594 Z M 43.863281 80.644531 L 37.5 84.269531 L 31.136719 80.644531 Z M 27.996094 79.808594 L 20.648438 79.808594 L 16.980469 73.535156 Z M 14.683594 71.265625 L 8.320312 67.628906 L 8.320312 60.378906 Z M 7.476562 57.285156 L 3.796875 51 L 7.476562 44.714844 Z M 8.320312 41.621094 L 8.320312 34.371094 L 14.683594 30.734375 Z M 16.980469 28.464844 L 20.648438 22.191406 L 27.996094 22.191406 Z M 31.136719 21.355469 L 37.5 17.730469 L 43.863281 21.355469 Z M 47.003906 22.191406 L 54.351562 22.191406 L 58.019531 28.464844 Z M 60.316406 30.734375 L 66.679688 34.371094 L 66.679688 41.621094 Z M 67.523438 44.714844 L 71.203125 51 L 67.523438 57.285156 Z M 57.914062 22.191406 C 60.257812 22.191406 62.460938 23.085938 64.113281 24.726562 C 65.777344 26.351562 66.679688 28.535156 66.679688 30.847656 L 66.679688 33.40625 L 59.484375 29.304688 L 55.324219 22.191406 Z M 40.59375 15.972656 C 42.621094 14.8125 44.976562 14.507812 47.238281 15.101562 C 49.5 15.707031 51.398438 17.136719 52.570312 19.136719 L 53.859375 21.355469 L 45.539062 21.355469 L 38.34375 17.253906 Z M 22.429688 19.136719 C 23.601562 17.136719 25.5 15.707031 27.761719 15.101562 C 30.023438 14.507812 32.378906 14.8125 34.40625 15.972656 L 36.65625 17.253906 L 29.449219 21.355469 L 21.140625 21.355469 Z M 8.320312 30.835938 C 8.320312 28.523438 9.222656 26.351562 10.886719 24.726562 C 12.539062 23.085938 14.742188 22.191406 17.085938 22.191406 L 19.675781 22.191406 L 15.515625 29.304688 L 8.320312 33.40625 Z M 2.015625 47.957031 C 0.84375 45.945312 0.539062 43.609375 1.136719 41.378906 C 1.746094 39.148438 3.199219 37.289062 5.226562 36.125 L 7.476562 34.847656 L 7.476562 43.0625 L 3.316406 50.175781 Z M 5.226562 65.875 C 3.199219 64.714844 1.746094 62.851562 1.136719 60.621094 C 0.539062 58.390625 0.84375 56.054688 2.015625 54.054688 L 3.316406 51.824219 L 7.476562 58.949219 L 7.476562 67.152344 Z M 17.085938 79.808594 C 14.742188 79.808594 12.539062 78.914062 10.886719 77.273438 C 9.222656 75.636719 8.320312 73.464844 8.320312 71.152344 L 8.320312 68.59375 L 15.515625 72.695312 L 19.675781 79.808594 Z M 34.40625 86.027344 C 32.378906 87.1875 30.023438 87.488281 27.761719 86.898438 C 25.5 86.292969 23.601562 84.863281 22.429688 82.863281 L 21.140625 80.644531 L 29.460938 80.644531 L 36.65625 84.746094 Z M 52.570312 82.863281 C 51.398438 84.863281 49.5 86.292969 47.238281 86.898438 C 44.976562 87.488281 42.621094 87.1875 40.59375 86.027344 L 38.34375 84.746094 L 45.550781 80.644531 L 53.859375 80.644531 Z M 66.679688 71.152344 C 66.679688 73.464844 65.777344 75.636719 64.113281 77.273438 C 62.460938 78.914062 60.257812 79.808594 57.914062 79.808594 L 55.324219 79.808594 L 59.484375 72.695312 L 66.679688 68.59375 Z M 73.863281 60.621094 C 73.253906 62.851562 71.800781 64.714844 69.773438 65.875 L 67.523438 67.152344 L 67.523438 58.9375 L 71.683594 51.824219 L 72.984375 54.042969 C 74.15625 56.054688 74.460938 58.378906 73.863281 60.621094 Z M 73.863281 60.621094 "/>
<g clip-path="url(#clip1)" clip-rule="nonzero">
<path style=" stroke:none;fill-rule:nonzero;fill:rgb(100%,100%,100%);fill-opacity:1;" d="M 15.914062 51.71875 L 15.914062 55.847656 L 15 55.847656 L 15 46.085938 L 16.253906 46.085938 L 18.773438 50.210938 L 21.5625 54.789062 C 21.539062 53.789062 21.527344 52.265625 21.527344 50.222656 L 21.527344 46.085938 L 22.441406 46.085938 L 22.441406 55.847656 L 21.1875 55.847656 L 18.679688 51.742188 L 15.878906 47.140625 C 15.902344 48.1875 15.914062 49.710938 15.914062 51.71875 Z M 26.882812 55.101562 C 27.46875 55.101562 27.9375 54.953125 28.289062 54.625 C 28.652344 54.3125 28.828125 53.90625 28.828125 53.417969 L 28.828125 52.359375 L 27.375 52.359375 C 26.671875 52.359375 26.15625 52.488281 25.816406 52.753906 C 25.476562 53.023438 25.300781 53.347656 25.300781 53.742188 C 25.300781 54.148438 25.441406 54.476562 25.699219 54.730469 C 25.96875 54.984375 26.367188 55.101562 26.882812 55.101562 Z M 28.828125 55.847656 L 28.828125 54.984375 C 28.40625 55.613281 27.703125 55.914062 26.683594 55.914062 C 25.992188 55.914062 25.441406 55.71875 24.996094 55.3125 C 24.5625 54.917969 24.351562 54.40625 24.351562 53.777344 C 24.351562 53.070312 24.621094 52.523438 25.171875 52.128906 C 25.734375 51.742188 26.460938 51.546875 27.375 51.546875 L 28.828125 51.546875 L 28.828125 51.210938 C 28.828125 50.558594 28.675781 50.058594 28.394531 49.722656 C 28.113281 49.394531 27.644531 49.222656 26.976562 49.222656 C 26.203125 49.222656 25.511719 49.429688 24.890625 49.847656 L 24.890625 48.898438 C 25.453125 48.558594 26.15625 48.386719 26.988281 48.386719 C 28.804688 48.386719 29.71875 49.328125 29.71875 51.210938 L 29.71875 55.847656 Z M 37.59375 48.5 L 34.957031 55.847656 L 33.75 55.847656 L 31.183594 48.5 L 32.121094 48.5 L 33.164062 51.582031 L 34.359375 55.136719 C 34.453125 54.777344 34.863281 53.589844 35.566406 51.582031 L 36.65625 48.5 Z M 44.472656 54.589844 L 44.472656 55.484375 C 43.886719 55.777344 43.207031 55.914062 42.421875 55.914062 C 41.320312 55.914062 40.417969 55.578125 39.726562 54.894531 C 39.035156 54.21875 38.695312 53.324219 38.695312 52.207031 C 38.695312 51.035156 39 50.105469 39.609375 49.429688 C 40.207031 48.757812 40.992188 48.421875 41.964844 48.421875 C 42.878906 48.421875 43.605469 48.710938 44.132812 49.304688 C 44.671875 49.882812 44.941406 50.722656 44.941406 51.789062 C 44.941406 52.117188 44.929688 52.382812 44.882812 52.570312 L 39.632812 52.570312 C 39.703125 53.382812 39.984375 54 40.488281 54.429688 C 40.980469 54.859375 41.648438 55.078125 42.46875 55.078125 C 43.300781 55.078125 43.980469 54.917969 44.472656 54.589844 Z M 41.941406 49.246094 C 41.308594 49.246094 40.792969 49.453125 40.371094 49.894531 C 39.949219 50.324219 39.703125 50.953125 39.632812 51.753906 L 44.015625 51.753906 L 44.015625 51.429688 C 44.015625 50.757812 43.828125 50.234375 43.453125 49.835938 C 43.078125 49.441406 42.574219 49.246094 41.941406 49.246094 Z M 52.089844 54.589844 L 52.089844 55.484375 C 51.503906 55.777344 50.824219 55.914062 50.039062 55.914062 C 48.925781 55.914062 48.035156 55.578125 47.34375 54.894531 C 46.652344 54.21875 46.3125 53.324219 46.3125 52.207031 C 46.3125 51.035156 46.617188 50.105469 47.214844 49.429688 C 47.824219 48.757812 48.609375 48.421875 49.582031 48.421875 C 50.496094 48.421875 51.210938 48.710938 51.75 49.304688 C 52.289062 49.882812 52.558594 50.722656 52.558594 51.789062 C 52.558594 52.117188 52.535156 52.382812 52.5 52.570312 L 47.25 52.570312 C 47.320312 53.382812 47.601562 54 48.09375 54.429688 C 48.597656 54.859375 49.253906 55.078125 50.085938 55.078125 C 50.917969 55.078125 51.585938 54.917969 52.089844 54.589844 Z M 49.546875 49.246094 C 48.925781 49.246094 48.398438 49.453125 47.976562 49.894531 C 47.566406 50.324219 47.320312 50.953125 47.25 51.753906 L 51.632812 51.753906 L 51.632812 51.429688 C 51.632812 50.757812 51.445312 50.234375 51.070312 49.835938 C 50.695312 49.441406 50.191406 49.246094 49.546875 49.246094 Z M 60 50.722656 L 60 55.847656 L 59.109375 55.847656 L 59.109375 50.988281 C 59.109375 50.417969 58.957031 49.988281 58.664062 49.6875 C 58.371094 49.382812 57.984375 49.246094 57.503906 49.246094 C 56.894531 49.246094 56.378906 49.464844 55.933594 49.929688 C 55.5 50.382812 55.277344 51.011719 55.277344 51.789062 L 55.277344 55.847656 L 54.375 55.847656 L 54.375 48.5 L 55.277344 48.5 L 55.277344 49.757812 C 55.734375 48.839844 56.519531 48.386719 57.632812 48.386719 C 58.347656 48.386719 58.921875 48.605469 59.355469 49.035156 C 59.789062 49.464844 60 50.035156 60 50.722656 Z M 60 50.722656 "/>
</g>
</g>
</svg>
