<?xml version="1.0" encoding="UTF-8"?>
<svg xmlns="http://www.w3.org/2000/svg" xmlns:xlink="http://www.w3.org/1999/xlink" width="50px" height="69px" viewBox="0 0 50 68" version="1.1">
<defs>
<clipPath id="clip1">
  <path d="M 10 30.722656 L 40 30.722656 L 40 37.277344 L 10 37.277344 Z M 10 30.722656 "/>
</clipPath>
</defs>
<g id="surface1">
<path style=" stroke:none;fill-rule:nonzero;fill:rgb(100%,100%,100%);fill-opacity:1;" d="M 48.117188 34 L 49.140625 32.242188 C 50.90625 29.21875 49.859375 25.355469 46.796875 23.601562 L 45.015625 22.589844 L 45.015625 20.558594 C 45.015625 17.070312 42.148438 14.238281 38.609375 14.238281 L 36.554688 14.238281 L 35.53125 12.476562 C 33.757812 9.457031 29.84375 8.417969 26.78125 10.167969 L 25 11.183594 L 23.21875 10.167969 C 20.15625 8.417969 16.242188 9.457031 14.46875 12.476562 L 13.445312 14.238281 L 11.390625 14.238281 C 7.851562 14.238281 4.984375 17.070312 4.984375 20.558594 L 4.984375 22.589844 L 3.203125 23.601562 C 0.140625 25.355469 -0.90625 29.21875 0.859375 32.242188 L 1.882812 34 L 0.859375 35.757812 C -0.90625 38.78125 0.140625 42.644531 3.203125 44.398438 L 4.984375 45.410156 L 4.984375 47.433594 C 4.984375 50.929688 7.851562 53.761719 11.390625 53.761719 L 13.445312 53.761719 L 14.46875 55.515625 C 16.242188 58.542969 20.15625 59.582031 23.21875 57.832031 L 25 56.816406 L 26.78125 57.832031 C 29.84375 59.582031 33.757812 58.542969 35.53125 55.523438 L 36.554688 53.761719 L 38.609375 53.761719 C 42.148438 53.761719 45.015625 50.929688 45.015625 47.441406 L 45.015625 45.410156 L 46.796875 44.398438 C 49.859375 42.644531 50.90625 38.78125 49.140625 35.757812 Z M 46.515625 24.082031 C 47.867188 24.859375 48.835938 26.097656 49.242188 27.585938 C 49.640625 29.074219 49.4375 30.628906 48.65625 31.960938 L 47.789062 33.441406 L 45.015625 28.699219 L 45.015625 23.230469 Z M 39.242188 48.0625 L 30.210938 53.207031 L 19.789062 53.207031 L 10.757812 48.0625 L 5.546875 39.144531 L 5.546875 28.855469 L 10.757812 19.9375 L 19.789062 14.792969 L 30.210938 14.792969 L 39.242188 19.9375 L 44.453125 28.855469 L 44.453125 39.144531 Z M 44.453125 40.253906 L 44.453125 45.085938 L 40.210938 47.511719 Z M 38.679688 49.023438 L 36.234375 53.207031 L 31.335938 53.207031 Z M 29.242188 53.761719 L 25 56.179688 L 20.757812 53.761719 Z M 18.664062 53.207031 L 13.765625 53.207031 L 11.320312 49.023438 Z M 9.789062 47.511719 L 5.546875 45.085938 L 5.546875 40.253906 Z M 4.984375 38.191406 L 2.53125 34 L 4.984375 29.808594 Z M 5.546875 27.746094 L 5.546875 22.914062 L 9.789062 20.488281 Z M 11.320312 18.976562 L 13.765625 14.792969 L 18.664062 14.792969 Z M 20.757812 14.238281 L 25 11.820312 L 29.242188 14.238281 Z M 31.335938 14.792969 L 36.234375 14.792969 L 38.679688 18.976562 Z M 40.210938 20.488281 L 44.453125 22.914062 L 44.453125 27.746094 Z M 45.015625 29.808594 L 47.46875 34 L 45.015625 38.191406 Z M 38.609375 14.792969 C 40.171875 14.792969 41.640625 15.390625 42.742188 16.484375 C 43.851562 17.566406 44.453125 19.023438 44.453125 20.566406 L 44.453125 22.269531 L 39.65625 19.535156 L 36.882812 14.792969 Z M 27.0625 10.648438 C 28.414062 9.875 29.984375 9.671875 31.492188 10.066406 C 33 10.472656 34.265625 11.425781 35.046875 12.757812 L 35.90625 14.238281 L 30.359375 14.238281 L 25.5625 11.5 Z M 14.953125 12.757812 C 15.734375 11.425781 17 10.472656 18.507812 10.066406 C 20.015625 9.671875 21.585938 9.875 22.9375 10.648438 L 24.4375 11.5 L 19.632812 14.238281 L 14.09375 14.238281 Z M 5.546875 20.558594 C 5.546875 19.015625 6.148438 17.566406 7.257812 16.484375 C 8.359375 15.390625 9.828125 14.792969 11.390625 14.792969 L 13.117188 14.792969 L 10.34375 19.535156 L 5.546875 22.269531 Z M 1.34375 31.96875 C 0.5625 30.628906 0.359375 29.074219 0.757812 27.585938 C 1.164062 26.097656 2.132812 24.859375 3.484375 24.082031 L 4.984375 23.230469 L 4.984375 28.707031 L 2.210938 33.449219 Z M 3.484375 43.917969 C 2.132812 43.140625 1.164062 41.902344 0.757812 40.414062 C 0.359375 38.925781 0.5625 37.371094 1.34375 36.039062 L 2.210938 34.550781 L 4.984375 39.300781 L 4.984375 44.769531 Z M 11.390625 53.207031 C 9.828125 53.207031 8.359375 52.609375 7.257812 51.515625 C 6.148438 50.425781 5.546875 48.976562 5.546875 47.433594 L 5.546875 45.730469 L 10.34375 48.464844 L 13.117188 53.207031 Z M 22.9375 57.351562 C 21.585938 58.125 20.015625 58.328125 18.507812 57.933594 C 17 57.527344 15.734375 56.574219 14.953125 55.242188 L 14.09375 53.761719 L 19.640625 53.761719 L 24.4375 56.5 Z M 35.046875 55.242188 C 34.265625 56.574219 33 57.527344 31.492188 57.933594 C 29.984375 58.328125 28.414062 58.125 27.0625 57.351562 L 25.5625 56.5 L 30.367188 53.761719 L 35.90625 53.761719 Z M 44.453125 47.433594 C 44.453125 48.976562 43.851562 50.425781 42.742188 51.515625 C 41.640625 52.609375 40.171875 53.207031 38.609375 53.207031 L 36.882812 53.207031 L 39.65625 48.464844 L 44.453125 45.730469 Z M 49.242188 40.414062 C 48.835938 41.902344 47.867188 43.140625 46.515625 43.917969 L 45.015625 44.769531 L 45.015625 39.292969 L 47.789062 34.550781 L 48.65625 36.03125 C 49.4375 37.371094 49.640625 38.917969 49.242188 40.414062 Z M 49.242188 40.414062 "/>
<g clip-path="url(#clip1)" clip-rule="nonzero">
<path style=" stroke:none;fill-rule:nonzero;fill:rgb(100%,100%,100%);fill-opacity:1;" d="M 10.609375 34.480469 L 10.609375 37.230469 L 10 37.230469 L 10 30.722656 L 10.835938 30.722656 L 12.515625 33.472656 L 14.375 36.527344 C 14.359375 35.859375 14.351562 34.84375 14.351562 33.480469 L 14.351562 30.722656 L 14.960938 30.722656 L 14.960938 37.230469 L 14.125 37.230469 L 12.453125 34.496094 L 10.585938 31.429688 C 10.601562 32.125 10.609375 33.140625 10.609375 34.480469 Z M 17.921875 36.734375 C 18.3125 36.734375 18.625 36.632812 18.859375 36.417969 C 19.101562 36.207031 19.21875 35.9375 19.21875 35.613281 L 19.21875 34.90625 L 18.25 34.90625 C 17.78125 34.90625 17.4375 34.992188 17.210938 35.167969 C 16.984375 35.347656 16.867188 35.566406 16.867188 35.828125 C 16.867188 36.097656 16.960938 36.316406 17.132812 36.488281 C 17.3125 36.65625 17.578125 36.734375 17.921875 36.734375 Z M 19.21875 37.230469 L 19.21875 36.65625 C 18.9375 37.074219 18.46875 37.277344 17.789062 37.277344 C 17.328125 37.277344 16.960938 37.144531 16.664062 36.875 C 16.375 36.609375 16.234375 36.269531 16.234375 35.851562 C 16.234375 35.378906 16.414062 35.015625 16.78125 34.75 C 17.15625 34.496094 17.640625 34.363281 18.25 34.363281 L 19.21875 34.363281 L 19.21875 34.140625 C 19.21875 33.707031 19.117188 33.371094 18.929688 33.148438 C 18.742188 32.929688 18.429688 32.816406 17.984375 32.816406 C 17.46875 32.816406 17.007812 32.953125 16.59375 33.234375 L 16.59375 32.597656 C 16.96875 32.375 17.4375 32.257812 17.992188 32.257812 C 19.203125 32.257812 19.8125 32.882812 19.8125 34.140625 L 19.8125 37.230469 Z M 25.0625 32.335938 L 23.304688 37.230469 L 22.5 37.230469 L 20.789062 32.335938 L 21.414062 32.335938 L 22.109375 34.386719 L 22.90625 36.757812 C 22.96875 36.519531 23.242188 35.726562 23.710938 34.386719 L 24.4375 32.335938 Z M 29.648438 36.394531 L 29.648438 36.992188 C 29.257812 37.183594 28.804688 37.277344 28.28125 37.277344 C 27.546875 37.277344 26.945312 37.050781 26.484375 36.59375 C 26.023438 36.144531 25.796875 35.550781 25.796875 34.804688 C 25.796875 34.023438 26 33.402344 26.40625 32.953125 C 26.804688 32.503906 27.328125 32.28125 27.976562 32.28125 C 28.585938 32.28125 29.070312 32.472656 29.421875 32.867188 C 29.78125 33.257812 29.960938 33.8125 29.960938 34.527344 C 29.960938 34.742188 29.953125 34.921875 29.921875 35.046875 L 26.421875 35.046875 C 26.46875 35.589844 26.65625 36 26.992188 36.285156 C 27.320312 36.570312 27.765625 36.71875 28.3125 36.71875 C 28.867188 36.71875 29.320312 36.609375 29.648438 36.394531 Z M 27.960938 32.832031 C 27.539062 32.832031 27.195312 32.96875 26.914062 33.265625 C 26.632812 33.550781 26.46875 33.96875 26.421875 34.503906 L 29.34375 34.503906 L 29.34375 34.285156 C 29.34375 33.835938 29.21875 33.488281 28.96875 33.226562 C 28.71875 32.960938 28.382812 32.832031 27.960938 32.832031 Z M 34.726562 36.394531 L 34.726562 36.992188 C 34.335938 37.183594 33.882812 37.277344 33.359375 37.277344 C 32.617188 37.277344 32.023438 37.050781 31.5625 36.59375 C 31.101562 36.144531 30.875 35.550781 30.875 34.804688 C 30.875 34.023438 31.078125 33.402344 31.476562 32.953125 C 31.882812 32.503906 32.40625 32.28125 33.054688 32.28125 C 33.664062 32.28125 34.140625 32.472656 34.5 32.867188 C 34.859375 33.257812 35.039062 33.8125 35.039062 34.527344 C 35.039062 34.742188 35.023438 34.921875 35 35.046875 L 31.5 35.046875 C 31.546875 35.589844 31.734375 36 32.0625 36.285156 C 32.398438 36.570312 32.835938 36.71875 33.390625 36.71875 C 33.945312 36.71875 34.390625 36.609375 34.726562 36.394531 Z M 33.03125 32.832031 C 32.617188 32.832031 32.265625 32.96875 31.984375 33.265625 C 31.710938 33.550781 31.546875 33.96875 31.5 34.503906 L 34.421875 34.503906 L 34.421875 34.285156 C 34.421875 33.835938 34.296875 33.488281 34.046875 33.226562 C 33.796875 32.960938 33.460938 32.832031 33.03125 32.832031 Z M 40 33.8125 L 40 37.230469 L 39.40625 37.230469 L 39.40625 33.992188 C 39.40625 33.613281 39.304688 33.324219 39.109375 33.125 C 38.914062 32.921875 38.65625 32.832031 38.335938 32.832031 C 37.929688 32.832031 37.585938 32.976562 37.289062 33.289062 C 37 33.589844 36.851562 34.007812 36.851562 34.527344 L 36.851562 37.230469 L 36.25 37.230469 L 36.25 32.335938 L 36.851562 32.335938 L 36.851562 33.171875 C 37.15625 32.558594 37.679688 32.257812 38.421875 32.257812 C 38.898438 32.257812 39.28125 32.402344 39.570312 32.691406 C 39.859375 32.976562 40 33.355469 40 33.8125 Z M 40 33.8125 "/>
</g>
</g>
</svg>
